<svg width="800" height="800" viewBox="0 0 800 800" fill="none" xmlns="http://www.w3.org/2000/svg">
<path opacity="0.5" d="M66.667 566.667C66.667 503.813 66.667 472.387 86.1933 452.86C105.719 433.334 137.146 433.333 200 433.333H600C662.854 433.333 694.28 433.334 713.807 452.86C733.334 472.387 733.334 503.813 733.334 566.667C733.334 629.52 733.334 660.947 713.807 680.473C694.28 700 662.854 700 600 700H200C137.146 700 105.719 700 86.1933 680.473C66.667 660.947 66.667 629.52 66.667 566.667Z" stroke="white" stroke-width="50"/>
<path opacity="0.5" d="M66.667 200C66.667 137.146 66.667 105.719 86.1933 86.1928C105.719 66.6665 137.146 66.6665 200 66.6665H600C662.854 66.6665 694.28 66.6665 713.807 86.1928C733.334 105.719 733.334 137.146 733.334 200C733.334 262.854 733.334 294.281 713.807 313.807C694.28 333.333 662.854 333.333 600 333.333H200C137.146 333.333 105.719 333.333 86.1933 313.807C66.667 294.281 66.667 262.854 66.667 200Z" stroke="white" stroke-width="50"/>
<path d="M450 200H600" stroke="white" stroke-width="50" stroke-linecap="round"/>
<path d="M200 233.333V166.667" stroke="white" stroke-width="50" stroke-linecap="round"/>
<path d="M300 233.333V166.667" stroke="white" stroke-width="50" stroke-linecap="round"/>
<path d="M450 566.667H600" stroke="white" stroke-width="50" stroke-linecap="round"/>
<path d="M200 600V533.333" stroke="white" stroke-width="50" stroke-linecap="round"/>
<path d="M300 600V533.333" stroke="white" stroke-width="50" stroke-linecap="round"/>
</svg>
